HIERARCHY
ROOT mixamorig:Hips
{
	OFFSET 0.000000 201.639420 0.000000
	CHANNELS 6 Xposition Yposition Zposition Xrotation Yrotation Zrotation
	JOINT mixamorig:Spine
	{
		OFFSET 0.006200 19.524994 -2.481800
		CHANNELS 3 Xrotation Yrotation Zrotation
		JOINT mixamorig:Spine1
		{
			OFFSET -0.000900 22.835007 -2.825400
			CHANNELS 3 Xrotation Yrotation Zrotation
			JOINT mixamorig:Spine2
			{
				OFFSET -0.020600 26.552490 -3.193300
				CHANNELS 3 Xrotation Yrotation Zrotation
				JOINT mixamorig:Neck
				{
					OFFSET -0.060000 30.701813 1.352200
					CHANNELS 3 Xrotation Yrotation Zrotation
					JOINT mixamorig:Head
					{
						OFFSET -0.087200 22.547607 3.670900
						CHANNELS 3 Xrotation Yrotation Zrotation
						JOINT mixamorig:HeadTop_End
						{
							OFFSET -0.830600 40.355194 7.893500
							CHANNELS 3 Xrotation Yrotation Zrotation
							End Site
							{
								OFFSET 0.000000 30.592346 0.000000
							}
						}
						JOINT mixamorig:RightEye
						{
							OFFSET -6.302100 18.118591 16.197100
							CHANNELS 3 Xrotation Yrotation Zrotation
							End Site
							{
								OFFSET 0.000000 30.592346 0.000000
							}
						}
						JOINT mixamorig:LeftEye
						{
							OFFSET 6.741500 18.382690 16.401899
							CHANNELS 3 Xrotation Yrotation Zrotation
							End Site
							{
								OFFSET 0.000000 30.592346 0.000000
							}
						}
					}
				}
				JOINT mixamorig:LeftShoulder
				{
					OFFSET 11.924900 18.230499 1.425400
					CHANNELS 3 Xrotation Yrotation Zrotation
					JOINT mixamorig:LeftArm
					{
						OFFSET 25.435989 -0.697632 -5.229300
						CHANNELS 3 Xrotation Yrotation Zrotation
						JOINT mixamorig:LeftForeArm
						{
							OFFSET 54.684776 0.000000 0.000000
							CHANNELS 3 Xrotation Yrotation Zrotation
							JOINT mixamorig:LeftHand
							{
								OFFSET 55.098175 0.000000 0.000000
								CHANNELS 3 Xrotation Yrotation Zrotation
								JOINT mixamorig:LeftHandMiddle1
								{
									OFFSET 23.369751 0.000000 0.000000
									CHANNELS 3 Xrotation Yrotation Zrotation
									JOINT mixamorig:LeftHandMiddle2
									{
										OFFSET 6.378677 0.000000 0.000000
										CHANNELS 3 Xrotation Yrotation Zrotation
										JOINT mixamorig:LeftHandMiddle3
										{
											OFFSET 6.148331 0.000000 0.000000
											CHANNELS 3 Xrotation Yrotation Zrotation
											JOINT mixamorig:LeftHandMiddle4
											{
												OFFSET 6.582504 0.000000 0.000000
												CHANNELS 3 Xrotation Yrotation Zrotation
												End Site
												{
													OFFSET -1.168900 6.395691 1.028606
												}
											}
										}
									}
								}
								JOINT mixamorig:LeftHandThumb1
								{
									OFFSET 7.235672 -3.848206 5.434273
									CHANNELS 3 Xrotation Yrotation Zrotation
									JOINT mixamorig:LeftHandThumb2
									{
										OFFSET 6.568451 -3.792297 3.792300
										CHANNELS 3 Xrotation Yrotation Zrotation
										JOINT mixamorig:LeftHandThumb3
										{
											OFFSET 6.063080 -3.500519 3.500518
											CHANNELS 3 Xrotation Yrotation Zrotation
											JOINT mixamorig:LeftHandThumb4
											{
												OFFSET 4.793182 -2.767334 2.767349
												CHANNELS 3 Xrotation Yrotation Zrotation
												End Site
												{
													OFFSET 0.101639 6.054260 1.275483
												}
											}
										}
									}
								}
								JOINT mixamorig:LeftHandIndex1
								{
									OFFSET 23.101074 -0.309540 4.992809
									CHANNELS 3 Xrotation Yrotation Zrotation
									JOINT mixamorig:LeftHandIndex2
									{
										OFFSET 6.226883 0.000000 0.000000
										CHANNELS 3 Xrotation Yrotation Zrotation
										JOINT mixamorig:LeftHandIndex3
										{
											OFFSET 6.094330 0.000000 0.000000
											CHANNELS 3 Xrotation Yrotation Zrotation
											JOINT mixamorig:LeftHandIndex4
											{
												OFFSET 5.482605 0.000000 0.000000
												CHANNELS 3 Xrotation Yrotation Zrotation
												End Site
												{
													OFFSET -1.427902 5.233032 0.797164
												}
											}
										}
									}
								}
								JOINT mixamorig:LeftHandRing1
								{
									OFFSET 22.299240 0.021149 -3.964172
									CHANNELS 3 Xrotation Yrotation Zrotation
									JOINT mixamorig:LeftHandRing2
									{
										OFFSET 6.321869 0.000000 0.000000
										CHANNELS 3 Xrotation Yrotation Zrotation
										JOINT mixamorig:LeftHandRing3
										{
											OFFSET 5.899796 0.000000 0.000000
											CHANNELS 3 Xrotation Yrotation Zrotation
											JOINT mixamorig:LeftHandRing4
											{
												OFFSET 6.517899 0.000000 0.000000
												CHANNELS 3 Xrotation Yrotation Zrotation
												End Site
												{
													OFFSET -1.637299 6.232208 0.980890
												}
											}
										}
									}
								}
								JOINT mixamorig:LeftHandPinky1
								{
									OFFSET 20.463791 -0.302338 -8.562233
									CHANNELS 3 Xrotation Yrotation Zrotation
									JOINT mixamorig:LeftHandPinky2
									{
										OFFSET 6.908646 0.000000 0.000000
										CHANNELS 3 Xrotation Yrotation Zrotation
										JOINT mixamorig:LeftHandPinky3
										{
											OFFSET 4.622849 0.000000 0.000000
											CHANNELS 3 Xrotation Yrotation Zrotation
											JOINT mixamorig:LeftHandPinky4
											{
												OFFSET 5.216080 0.000000 0.000000
												CHANNELS 3 Xrotation Yrotation Zrotation
												End Site
												{
													OFFSET -0.606308 5.116241 0.814926
												}
											}
										}
									}
								}
							}
						}
					}
				}
				JOINT mixamorig:RightShoulder
				{
					OFFSET -12.001300 18.284088 1.348900
					CHANNELS 3 Xrotation Yrotation Zrotation
					JOINT mixamorig:RightArm
					{
						OFFSET -25.308500 -0.751312 -5.164599
						CHANNELS 3 Xrotation Yrotation Zrotation
						JOINT mixamorig:RightForeArm
						{
							OFFSET -54.684429 0.000000 0.000000
							CHANNELS 3 Xrotation Yrotation Zrotation
							JOINT mixamorig:RightHand
							{
								OFFSET -55.150291 0.000000 0.000000
								CHANNELS 3 Xrotation Yrotation Zrotation
								JOINT mixamorig:RightHandMiddle1
								{
									OFFSET -23.317566 0.000000 0.000000
									CHANNELS 3 Xrotation Yrotation Zrotation
									JOINT mixamorig:RightHandMiddle2
									{
										OFFSET -6.378403 0.000000 0.000000
										CHANNELS 3 Xrotation Yrotation Zrotation
										JOINT mixamorig:RightHandMiddle3
										{
											OFFSET -6.148193 0.000000 0.000000
											CHANNELS 3 Xrotation Yrotation Zrotation
											JOINT mixamorig:RightHandMiddle4
											{
												OFFSET -6.583389 0.000000 0.000000
												CHANNELS 3 Xrotation Yrotation Zrotation
												End Site
												{
													OFFSET 1.171692 6.395905 1.029786
												}
											}
										}
									}
								}
								JOINT mixamorig:RightHandThumb1
								{
									OFFSET -7.190521 -3.860474 5.435846
									CHANNELS 3 Xrotation Yrotation Zrotation
									JOINT mixamorig:RightHandThumb2
									{
										OFFSET -6.567429 -3.791718 3.791708
										CHANNELS 3 Xrotation Yrotation Zrotation
										JOINT mixamorig:RightHandThumb3
										{
											OFFSET -6.062469 -3.500153 3.500166
											CHANNELS 3 Xrotation Yrotation Zrotation
											JOINT mixamorig:RightHandThumb4
											{
												OFFSET -4.792618 -2.767029 2.767022
												CHANNELS 3 Xrotation Yrotation Zrotation
												End Site
												{
													OFFSET -0.100327 6.053253 1.276754
												}
											}
										}
									}
								}
								JOINT mixamorig:RightHandIndex1
								{
									OFFSET -23.048981 -0.310791 4.992554
									CHANNELS 3 Xrotation Yrotation Zrotation
									JOINT mixamorig:RightHandIndex2
									{
										OFFSET -6.227539 0.000000 0.000000
										CHANNELS 3 Xrotation Yrotation Zrotation
										JOINT mixamorig:RightHandIndex3
										{
											OFFSET -6.095047 0.000000 0.000000
											CHANNELS 3 Xrotation Yrotation Zrotation
											JOINT mixamorig:RightHandIndex4
											{
												OFFSET -5.484772 0.000000 0.000000
												CHANNELS 3 Xrotation Yrotation Zrotation
												End Site
												{
													OFFSET 1.420593 5.237305 0.797056
												}
											}
										}
									}
								}
								JOINT mixamorig:RightHandRing1
								{
									OFFSET -22.246323 0.020569 -3.963762
									CHANNELS 3 Xrotation Yrotation Zrotation
									JOINT mixamorig:RightHandRing2
									{
										OFFSET -6.322128 0.000000 0.000000
										CHANNELS 3 Xrotation Yrotation Zrotation
										JOINT mixamorig:RightHandRing3
										{
											OFFSET -5.900024 0.000000 0.000000
											CHANNELS 3 Xrotation Yrotation Zrotation
											JOINT mixamorig:RightHandRing4
											{
												OFFSET -6.518356 0.000000 0.000000
												CHANNELS 3 Xrotation Yrotation Zrotation
												End Site
												{
													OFFSET 1.636398 6.232697 0.982186
												}
											}
										}
									}
								}
								JOINT mixamorig:RightHandPinky1
								{
									OFFSET -20.411011 -0.303314 -8.561701
									CHANNELS 3 Xrotation Yrotation Zrotation
									JOINT mixamorig:RightHandPinky2
									{
										OFFSET -6.907349 0.000000 0.000000
										CHANNELS 3 Xrotation Yrotation Zrotation
										JOINT mixamorig:RightHandPinky3
										{
											OFFSET -4.623840 0.000000 0.000000
											CHANNELS 3 Xrotation Yrotation Zrotation
											JOINT mixamorig:RightHandPinky4
											{
												OFFSET -5.218353 0.000000 0.000000
												CHANNELS 3 Xrotation Yrotation Zrotation
												End Site
												{
													OFFSET 0.602097 5.118835 0.816273
												}
											}
										}
									}
								}
							}
						}
					}
				}
			}
		}
	}
	JOINT mixamorig:LeftUpLeg
	{
		OFFSET 18.168400 -13.561905 -0.039000
		CHANNELS 3 Xrotation Yrotation Zrotation
		JOINT mixamorig:LeftLeg
		{
			OFFSET 0.577358 -80.825211 -3.695000
			CHANNELS 3 Xrotation Yrotation Zrotation
			JOINT mixamorig:LeftFoot
			{
				OFFSET -0.577356 -83.370262 -6.520700
				CHANNELS 3 Xrotation Yrotation Zrotation
				JOINT mixamorig:LeftToeBase
				{
					OFFSET 0.750401 -20.798306 25.135401
					CHANNELS 3 Xrotation Yrotation Zrotation
					JOINT mixamorig:LeftToe_End
					{
						OFFSET -0.000500 0.001200 19.917799
						CHANNELS 3 Xrotation Yrotation Zrotation
						End Site
						{
							OFFSET 0.000000 19.917805 0.000000
						}
					}
				}
			}
		}
	}
	JOINT mixamorig:RightUpLeg
	{
		OFFSET -18.162500 -13.585098 -0.041000
		CHANNELS 3 Xrotation Yrotation Zrotation
		JOINT mixamorig:RightLeg
		{
			OFFSET -0.595024 -80.945297 -3.631900
			CHANNELS 3 Xrotation Yrotation Zrotation
			JOINT mixamorig:RightFoot
			{
				OFFSET 0.595024 -83.218193 -6.561200
				CHANNELS 3 Xrotation Yrotation Zrotation
				JOINT mixamorig:RightToeBase
				{
					OFFSET -0.753601 -20.807106 25.115000
					CHANNELS 3 Xrotation Yrotation Zrotation
					JOINT mixamorig:RightToe_End
					{
						OFFSET 0.000299 0.001700 19.918200
						CHANNELS 3 Xrotation Yrotation Zrotation
						End Site
						{
							OFFSET 0.000000 19.918203 0.000000
						}
					}
				}
			}
		}
	}
}
MOTION
Frames: 4
Frame Time: 0.033333
0.293100 182.612030 -0.395150 0.718841 46.801983 2.493233 1.137800 1.397952 3.797542 1.851082 2.828011 1.005357 1.804823 2.850636 1.022716 12.946735 7.197504 -5.158520 0.760079 31.268148 8.262412 -0.000000 -0.000000 -0.000001 -0.000000 -0.000000 -0.000001 -0.000000 -0.000000 -0.000001 1.409443 -12.492944 -11.273876 -45.868665 -10.565363 -43.463861 0.000053 -66.326656 0.000033 -107.204976 19.658601 6.721850 0.460191 2.479390 -21.026799 0.461571 2.482997 -21.058817 0.460892 2.481193 -21.042812 0.000002 -0.000001 -0.000001 -0.329777 -15.770053 7.158055 3.939052 7.948721 0.746806 -0.579456 1.574991 2.538718 -0.000002 0.000002 -0.000003 0.460889 2.481190 -21.042812 0.460881 2.481205 -21.042800 0.460888 2.481207 -21.042821 0.000002 0.000002 -0.000000 0.541880 2.682050 -22.840745 0.541873 2.682026 -22.840735 0.541881 2.682028 -22.840745 -0.000000 -0.000000 0.000002 2.453799 6.666633 -25.490080 0.699372 -1.047981 -26.312708 0.691470 3.012241 -25.851740 -0.000001 0.000003 0.000001 1.158006 28.936588 10.599932 -32.013810 33.431563 49.496557 0.000070 107.652490 -0.000067 -50.447268 -37.409858 -33.280517 5.893965 -6.868168 81.251657 5.893980 -6.868175 81.251678 3.128359 -5.808284 56.584579 0.000002 -0.000001 0.000002 24.742881 -13.971769 11.207080 7.335541 -24.090815 -5.399707 -6.242368 -25.343779 -16.662130 -0.000001 0.000004 0.000002 0.145416 10.767197 -0.131848 4.502378 -6.505463 69.343318 5.526489 -6.801897 78.164589 0.000001 -0.000001 -0.000001 5.893974 -6.868186 81.251664 5.893979 -6.868165 81.251678 3.128347 -5.808278 56.584583 -0.000000 -0.000001 0.000004 5.893971 -6.868152 81.251671 5.893961 -6.868169 81.251678 3.128357 -5.808289 56.584572 -0.000001 0.000001 -0.000002 -9.907936 -1.749624 3.013601 44.698735 11.312458 10.568756 -25.271338 1.501270 12.066810 -17.201300 0.000013 -0.000000 -0.000002 -0.000003 -0.000001 -41.542122 -5.004628 -23.276016 30.010963 9.639983 5.134394 13.102854 -25.750484 8.921141 0.000007 0.000008 -0.000001 0.000000 -0.000000 0.000000 
1.134365 183.036972 -10.828910 1.702623 46.484560 2.038540 1.142440 1.324853 3.876718 1.878295 2.563154 1.004358 1.838314 2.584812 1.019687 12.591712 7.252957 -5.271785 0.405710 31.546731 7.893533 0.000000 -0.000000 -0.000000 0.000000 -0.000000 -0.000000 0.000000 -0.000000 -0.000000 1.391299 -12.115299 -11.287479 -46.362607 -10.667395 -43.366230 -0.000012 -66.661533 0.000006 -107.562864 19.666025 6.741179 0.460190 2.479389 -21.026802 0.461573 2.482995 -21.058819 0.460898 2.481199 -21.042816 0.000006 -0.000001 -0.000001 -0.329782 -15.770053 7.158052 3.939054 7.948723 0.746806 -0.579455 1.574999 2.538718 -0.000002 -0.000001 -0.000001 0.460886 2.481192 -21.042812 0.460883 2.481202 -21.042809 0.460882 2.481206 -21.042826 0.000000 0.000004 0.000003 0.541882 2.682052 -22.840755 0.541875 2.682027 -22.840733 0.541878 2.682030 -22.840740 0.000002 0.000000 -0.000002 2.453796 6.666630 -25.490082 0.699368 -1.047987 -26.312706 0.691475 3.012241 -25.851743 -0.000002 -0.000000 0.000001 1.132307 28.899521 10.582669 -32.707464 34.093719 49.691593 0.000184 107.466634 -0.000150 -51.164141 -37.450515 -33.310399 5.893965 -6.868168 81.251657 5.893980 -6.868174 81.251678 3.128359 -5.808286 56.584579 0.000002 0.000000 0.000001 24.742883 -13.971769 11.207080 7.335537 -24.090813 -5.399706 -6.242375 -25.343777 -16.662130 -0.000001 -0.000000 0.000001 0.145418 10.767193 -0.131849 4.502378 -6.505462 69.343318 5.526492 -6.801898 78.164589 0.000001 -0.000001 0.000001 5.893975 -6.868187 81.251664 5.893979 -6.868165 81.251678 3.128346 -5.808278 56.584583 0.000000 0.000001 0.000001 5.893971 -6.868153 81.251664 5.893960 -6.868167 81.251678 3.128356 -5.808288 56.584576 0.000002 -0.000001 -0.000001 -10.347660 -0.051507 1.502075 42.468494 6.945274 8.853939 -31.339800 6.598895 7.162956 -8.305605 0.000018 -0.000004 -0.000000 -0.000001 0.000000 -41.028683 -4.258563 -24.328610 24.729535 9.397833 4.097654 11.342047 -27.346566 9.047456 0.009886 0.000007 0.000002 0.000000 -0.000001 -0.000000 
2.135935 184.032410 -21.226070 2.442634 46.517089 1.838160 1.163555 1.268481 3.712949 1.953291 2.252476 1.061676 1.920913 2.273322 1.073911 12.401958 7.251493 -5.510472 0.032339 31.452236 7.585470 0.000000 -0.000000 -0.000002 0.000000 -0.000000 -0.000002 0.000000 -0.000000 -0.000002 1.386504 -11.808598 -11.397477 -47.017946 -11.016281 -43.481766 0.000011 -66.601905 0.000021 -107.747088 19.663300 6.730786 0.460192 2.479393 -21.026806 0.461563 2.482998 -21.058817 0.460895 2.481201 -21.042812 -0.000001 0.000002 0.000003 -0.329780 -15.770053 7.158051 3.939047 7.948724 0.746807 -0.579460 1.574989 2.538717 0.000000 -0.000001 -0.000000 0.460890 2.481190 -21.042817 0.460877 2.481205 -21.042809 0.460893 2.481207 -21.042828 0.000000 0.000000 -0.000002 0.541880 2.682051 -22.840750 0.541877 2.682029 -22.840735 0.541881 2.682030 -22.840742 -0.000002 0.000003 0.000005 2.453795 6.666634 -25.490078 0.699370 -1.047982 -26.312706 0.691471 3.012236 -25.851743 -0.000001 0.000001 -0.000004 1.086797 29.016580 10.556942 -33.240116 34.481520 49.708252 0.000067 107.272711 -0.000083 -51.015673 -37.498886 -33.344632 5.893965 -6.868169 81.251657 5.893983 -6.868175 81.251678 3.128360 -5.808285 56.584583 0.000003 -0.000001 0.000004 24.742884 -13.971767 11.207077 7.335539 -24.090815 -5.399707 -6.242376 -25.343779 -16.662134 -0.000001 -0.000000 0.000001 0.145417 10.767194 -0.131849 4.502378 -6.505462 69.343325 5.526488 -6.801896 78.164589 -0.000002 -0.000001 0.000001 5.893975 -6.868186 81.251664 5.893979 -6.868168 81.251678 3.128345 -5.808278 56.584579 -0.000001 -0.000000 0.000001 5.893970 -6.868151 81.251671 5.893961 -6.868167 81.251678 3.128356 -5.808289 56.584576 0.000000 0.000001 -0.000005 -12.218980 0.416882 2.000149 42.025577 6.629385 4.945548 -30.165739 4.157499 -3.599363 -5.369183 0.000027 -0.000002 0.000001 -0.000003 -0.000000 -39.477974 -3.799782 -25.330458 19.577072 6.119430 2.889356 5.611149 -29.510201 5.333218 0.121088 0.000002 0.000000 -0.000003 0.000001 0.000000 
3.254995 184.377945 -31.979050 2.571162 46.840669 1.664454 1.224226 1.244993 3.902603 2.109165 2.061836 1.231936 2.079998 2.084555 1.241961 12.415983 7.165259 -5.757787 0.055524 30.933753 7.247396 0.000000 0.000000 -0.000000 0.000000 0.000000 -0.000000 0.000000 0.000000 -0.000000 1.398168 -11.720309 -11.556819 -47.505352 -11.509729 -43.812959 -0.000022 -66.178844 -0.000009 -107.643549 19.649252 6.694293 0.460190 2.479388 -21.026801 0.461563 2.482994 -21.058815 0.460892 2.481196 -21.042814 0.000002 -0.000001 -0.000001 -0.329779 -15.770051 7.158052 3.939054 7.948721 0.746805 -0.579461 1.574993 2.538721 0.000002 0.000002 -0.000001 0.460885 2.481198 -21.042814 0.460888 2.481206 -21.042805 0.460889 2.481210 -21.042822 0.000001 -0.000002 -0.000003 0.541873 2.682051 -22.840749 0.541878 2.682029 -22.840733 0.541883 2.682027 -22.840743 -0.000002 -0.000002 -0.000003 2.453793 6.666633 -25.490083 0.699368 -1.047984 -26.312703 0.691467 3.012240 -25.851742 -0.000005 0.000001 -0.000001 1.050538 29.225847 10.540084 -33.309982 34.334118 49.508773 -0.000023 107.239127 0.000027 -50.363595 -37.531251 -33.365768 5.893964 -6.868168 81.251657 5.893982 -6.868175 81.251678 3.128359 -5.808286 56.584583 0.000001 -0.000001 0.000001 24.742883 -13.971767 11.207077 7.335542 -24.090820 -5.399710 -6.242369 -25.343781 -16.662127 0.000000 -0.000004 0.000005 0.145414 10.767196 -0.131849 4.502379 -6.505464 69.343325 5.526489 -6.801897 78.164582 0.000001 0.000003 0.000002 5.893974 -6.868186 81.251664 5.893980 -6.868168 81.251678 3.128346 -5.808277 56.584579 -0.000002 -0.000000 0.000000 5.893970 -6.868150 81.251671 5.893960 -6.868167 81.251678 3.128356 -5.808290 56.584572 0.000001 0.000002 -0.000004 -15.003668 0.338638 1.766004 43.223029 1.250796 1.465614 -29.104905 6.418549 -5.270134 -3.059601 0.000026 -0.000000 0.000000 -0.000003 -0.000000 -38.541695 -3.958517 -26.110847 17.087982 1.153018 2.006557 1.597405 -29.955666 -1.327060 0.213879 -0.000005 0.000004 0.000001 0.000000 -0.000000 
